<mxfile host="Electron" modified="2024-01-07T11:43:43.844Z" agent="Mozilla/5.0 (Windows NT 10.0; Win64; x64) AppleWebKit/537.36 (KHTML, like Gecko) draw.io/22.1.11 Chrome/114.0.5735.289 Electron/25.9.8 Safari/537.36" etag="D899TQqeypTqHRWtW1lH" version="22.1.11" type="device">
  <diagram name="Page-1" id="gPkVIxtFUfzGJRh9AbqL">
    <mxGraphModel dx="1418" dy="828" grid="1" gridSize="10" guides="1" tooltips="1" connect="1" arrows="1" fold="1" page="1" pageScale="1" pageWidth="850" pageHeight="1100" math="0" shadow="0">
      <root>
        <mxCell id="0" />
        <mxCell id="1" parent="0" />
        <mxCell id="fe30lfffuFMuotsFYThZ-63" value="&amp;nbsp; &amp;nbsp; &amp;nbsp; Infrastruktura serwera" style="rounded=1;whiteSpace=wrap;html=1;dashed=1;fillColor=none;align=left;verticalAlign=top;arcSize=4;" parent="1" vertex="1">
          <mxGeometry x="120.5" y="60" width="530" height="580" as="geometry" />
        </mxCell>
        <mxCell id="fe30lfffuFMuotsFYThZ-144" value="" style="group" parent="1" vertex="1" connectable="0">
          <mxGeometry x="416" y="76" width="111" height="65" as="geometry" />
        </mxCell>
        <mxCell id="fe30lfffuFMuotsFYThZ-64" value="serwer&lt;br&gt;brzegowy" style="text;html=1;strokeColor=none;fillColor=none;align=left;verticalAlign=middle;whiteSpace=wrap;rounded=0;" parent="1" vertex="1">
          <mxGeometry x="161" y="335" width="60" height="30" as="geometry" />
        </mxCell>
        <mxCell id="fe30lfffuFMuotsFYThZ-74" value="" style="group" parent="1" vertex="1" connectable="0">
          <mxGeometry x="261" y="410" width="111" height="65" as="geometry" />
        </mxCell>
        <mxCell id="fe30lfffuFMuotsFYThZ-72" value="" style="rounded=0;whiteSpace=wrap;html=1;fillColor=#f5f5f5;strokeColor=#666666;fontColor=#333333;verticalAlign=top;align=left;" parent="fe30lfffuFMuotsFYThZ-74" vertex="1">
          <mxGeometry x="6" y="6" width="105" height="59" as="geometry" />
        </mxCell>
        <mxCell id="fe30lfffuFMuotsFYThZ-70" value="&amp;nbsp;Docker" style="rounded=0;whiteSpace=wrap;html=1;fillColor=#f5f5f5;strokeColor=#666666;fontColor=#333333;verticalAlign=top;align=left;" parent="fe30lfffuFMuotsFYThZ-74" vertex="1">
          <mxGeometry width="105" height="59" as="geometry" />
        </mxCell>
        <mxCell id="fe30lfffuFMuotsFYThZ-68" value="&lt;i&gt;user&lt;/i&gt;" style="rounded=0;whiteSpace=wrap;html=1;fillColor=#d5e8d4;strokeColor=#82b366;" parent="fe30lfffuFMuotsFYThZ-74" vertex="1">
          <mxGeometry x="13" y="29" width="80" height="20" as="geometry" />
        </mxCell>
        <mxCell id="fe30lfffuFMuotsFYThZ-75" value="" style="group" parent="1" vertex="1" connectable="0">
          <mxGeometry x="141" y="410" width="111" height="65" as="geometry" />
        </mxCell>
        <mxCell id="fe30lfffuFMuotsFYThZ-76" value="" style="rounded=0;whiteSpace=wrap;html=1;fillColor=#f5f5f5;strokeColor=#666666;fontColor=#333333;verticalAlign=top;align=left;" parent="fe30lfffuFMuotsFYThZ-75" vertex="1">
          <mxGeometry x="6" y="6" width="105" height="59" as="geometry" />
        </mxCell>
        <mxCell id="fe30lfffuFMuotsFYThZ-77" value="&amp;nbsp;Docker" style="rounded=0;whiteSpace=wrap;html=1;fillColor=#f5f5f5;strokeColor=#666666;fontColor=#333333;verticalAlign=top;align=left;" parent="fe30lfffuFMuotsFYThZ-75" vertex="1">
          <mxGeometry width="105" height="59" as="geometry" />
        </mxCell>
        <mxCell id="fe30lfffuFMuotsFYThZ-78" value="&lt;i&gt;sphere&lt;/i&gt;" style="rounded=0;whiteSpace=wrap;html=1;fillColor=#d5e8d4;strokeColor=#82b366;" parent="fe30lfffuFMuotsFYThZ-75" vertex="1">
          <mxGeometry x="6" y="29" width="93" height="20" as="geometry" />
        </mxCell>
        <mxCell id="fe30lfffuFMuotsFYThZ-79" value="" style="group" parent="1" vertex="1" connectable="0">
          <mxGeometry x="381" y="410" width="111" height="65" as="geometry" />
        </mxCell>
        <mxCell id="fe30lfffuFMuotsFYThZ-80" value="" style="rounded=0;whiteSpace=wrap;html=1;fillColor=#f5f5f5;strokeColor=#666666;fontColor=#333333;verticalAlign=top;align=left;" parent="fe30lfffuFMuotsFYThZ-79" vertex="1">
          <mxGeometry x="6" y="6" width="105" height="59" as="geometry" />
        </mxCell>
        <mxCell id="fe30lfffuFMuotsFYThZ-81" value="&amp;nbsp;Docker" style="rounded=0;whiteSpace=wrap;html=1;fillColor=#f5f5f5;strokeColor=#666666;fontColor=#333333;verticalAlign=top;align=left;" parent="fe30lfffuFMuotsFYThZ-79" vertex="1">
          <mxGeometry width="105" height="59" as="geometry" />
        </mxCell>
        <mxCell id="fe30lfffuFMuotsFYThZ-82" value="&lt;i&gt;oAuth2&lt;/i&gt;" style="rounded=0;whiteSpace=wrap;html=1;fillColor=#d5e8d4;strokeColor=#82b366;" parent="fe30lfffuFMuotsFYThZ-79" vertex="1">
          <mxGeometry x="6" y="29" width="93" height="20" as="geometry" />
        </mxCell>
        <mxCell id="fe30lfffuFMuotsFYThZ-83" value="" style="group" parent="1" vertex="1" connectable="0">
          <mxGeometry x="270" y="220" width="111" height="65" as="geometry" />
        </mxCell>
        <mxCell id="fe30lfffuFMuotsFYThZ-84" value="" style="rounded=0;whiteSpace=wrap;html=1;fillColor=#f5f5f5;strokeColor=#666666;fontColor=#333333;verticalAlign=top;align=left;" parent="fe30lfffuFMuotsFYThZ-83" vertex="1">
          <mxGeometry x="6" y="6" width="105" height="59" as="geometry" />
        </mxCell>
        <mxCell id="fe30lfffuFMuotsFYThZ-85" value="&amp;nbsp;Docker" style="rounded=0;whiteSpace=wrap;html=1;fillColor=#f5f5f5;strokeColor=#666666;fontColor=#333333;verticalAlign=top;align=left;" parent="fe30lfffuFMuotsFYThZ-83" vertex="1">
          <mxGeometry width="105" height="59" as="geometry" />
        </mxCell>
        <mxCell id="fe30lfffuFMuotsFYThZ-86" value="&lt;i&gt;notification&lt;/i&gt;" style="rounded=0;whiteSpace=wrap;html=1;fillColor=#d5e8d4;strokeColor=#82b366;" parent="fe30lfffuFMuotsFYThZ-83" vertex="1">
          <mxGeometry x="6" y="29" width="93" height="20" as="geometry" />
        </mxCell>
        <mxCell id="fe30lfffuFMuotsFYThZ-87" value="" style="group" parent="1" vertex="1" connectable="0">
          <mxGeometry x="400" y="220" width="111" height="65" as="geometry" />
        </mxCell>
        <mxCell id="fe30lfffuFMuotsFYThZ-88" value="" style="rounded=0;whiteSpace=wrap;html=1;fillColor=#f5f5f5;strokeColor=#666666;fontColor=#333333;verticalAlign=top;align=left;" parent="fe30lfffuFMuotsFYThZ-87" vertex="1">
          <mxGeometry x="6" y="6" width="105" height="59" as="geometry" />
        </mxCell>
        <mxCell id="fe30lfffuFMuotsFYThZ-89" value="&amp;nbsp;Docker" style="rounded=0;whiteSpace=wrap;html=1;fillColor=#f5f5f5;strokeColor=#666666;fontColor=#333333;verticalAlign=top;align=left;" parent="fe30lfffuFMuotsFYThZ-87" vertex="1">
          <mxGeometry width="105" height="59" as="geometry" />
        </mxCell>
        <mxCell id="fe30lfffuFMuotsFYThZ-90" value="&lt;i&gt;multimedia&lt;/i&gt;" style="rounded=0;whiteSpace=wrap;html=1;fillColor=#d5e8d4;strokeColor=#82b366;" parent="fe30lfffuFMuotsFYThZ-87" vertex="1">
          <mxGeometry x="6" y="29" width="93" height="20" as="geometry" />
        </mxCell>
        <mxCell id="fe30lfffuFMuotsFYThZ-91" value="" style="group" parent="1" vertex="1" connectable="0">
          <mxGeometry x="142" y="220" width="111" height="65" as="geometry" />
        </mxCell>
        <mxCell id="fe30lfffuFMuotsFYThZ-92" value="" style="rounded=0;whiteSpace=wrap;html=1;fillColor=#f5f5f5;strokeColor=#666666;fontColor=#333333;verticalAlign=top;align=left;" parent="fe30lfffuFMuotsFYThZ-91" vertex="1">
          <mxGeometry x="6" y="6" width="105" height="59" as="geometry" />
        </mxCell>
        <mxCell id="fe30lfffuFMuotsFYThZ-93" value="&amp;nbsp;Docker" style="rounded=0;whiteSpace=wrap;html=1;fillColor=#f5f5f5;strokeColor=#666666;fontColor=#333333;verticalAlign=top;align=left;" parent="fe30lfffuFMuotsFYThZ-91" vertex="1">
          <mxGeometry width="105" height="59" as="geometry" />
        </mxCell>
        <mxCell id="fe30lfffuFMuotsFYThZ-94" value="&lt;i&gt;settings&lt;/i&gt;" style="rounded=0;whiteSpace=wrap;html=1;fillColor=#d5e8d4;strokeColor=#82b366;" parent="fe30lfffuFMuotsFYThZ-91" vertex="1">
          <mxGeometry x="6" y="29" width="93" height="20" as="geometry" />
        </mxCell>
        <mxCell id="fe30lfffuFMuotsFYThZ-95" value="" style="group" parent="1" vertex="1" connectable="0">
          <mxGeometry x="530" y="220" width="111" height="65" as="geometry" />
        </mxCell>
        <mxCell id="fe30lfffuFMuotsFYThZ-96" value="" style="rounded=0;whiteSpace=wrap;html=1;fillColor=#f5f5f5;strokeColor=#666666;fontColor=#333333;verticalAlign=top;align=left;" parent="fe30lfffuFMuotsFYThZ-95" vertex="1">
          <mxGeometry x="6" y="6" width="105" height="59" as="geometry" />
        </mxCell>
        <mxCell id="fe30lfffuFMuotsFYThZ-97" value="&amp;nbsp;Docker" style="rounded=0;whiteSpace=wrap;html=1;fillColor=#f5f5f5;strokeColor=#666666;fontColor=#333333;verticalAlign=top;align=left;" parent="fe30lfffuFMuotsFYThZ-95" vertex="1">
          <mxGeometry width="105" height="59" as="geometry" />
        </mxCell>
        <mxCell id="fe30lfffuFMuotsFYThZ-98" value="&lt;i&gt;chat&lt;/i&gt;" style="rounded=0;whiteSpace=wrap;html=1;fillColor=#d5e8d4;strokeColor=#82b366;" parent="fe30lfffuFMuotsFYThZ-95" vertex="1">
          <mxGeometry x="6" y="29" width="93" height="20" as="geometry" />
        </mxCell>
        <mxCell id="fe30lfffuFMuotsFYThZ-105" value="" style="group" parent="1" vertex="1" connectable="0">
          <mxGeometry x="100" y="320" width="60" height="60" as="geometry" />
        </mxCell>
        <mxCell id="fe30lfffuFMuotsFYThZ-54" value="" style="ellipse;whiteSpace=wrap;html=1;aspect=fixed;fillColor=#fff2cc;strokeColor=#d6b656;" parent="fe30lfffuFMuotsFYThZ-105" vertex="1">
          <mxGeometry width="60" height="60" as="geometry" />
        </mxCell>
        <mxCell id="fe30lfffuFMuotsFYThZ-55" value="" style="whiteSpace=wrap;html=1;aspect=fixed;fillColor=#ffe6cc;strokeColor=#d79b00;" parent="fe30lfffuFMuotsFYThZ-105" vertex="1">
          <mxGeometry x="37.5" y="11.25" width="7.5" height="7.5" as="geometry" />
        </mxCell>
        <mxCell id="fe30lfffuFMuotsFYThZ-56" value="" style="whiteSpace=wrap;html=1;aspect=fixed;fillColor=#ffe6cc;strokeColor=#d79b00;" parent="fe30lfffuFMuotsFYThZ-105" vertex="1">
          <mxGeometry x="37.5" y="26.25" width="7.5" height="7.5" as="geometry" />
        </mxCell>
        <mxCell id="fe30lfffuFMuotsFYThZ-57" value="" style="whiteSpace=wrap;html=1;aspect=fixed;fillColor=#ffe6cc;strokeColor=#d79b00;" parent="fe30lfffuFMuotsFYThZ-105" vertex="1">
          <mxGeometry x="37.5" y="41.25" width="7.5" height="7.5" as="geometry" />
        </mxCell>
        <mxCell id="fe30lfffuFMuotsFYThZ-58" value="" style="whiteSpace=wrap;html=1;aspect=fixed;fillColor=#ffe6cc;strokeColor=#d79b00;" parent="fe30lfffuFMuotsFYThZ-105" vertex="1">
          <mxGeometry x="7.5" y="26.25" width="7.5" height="7.5" as="geometry" />
        </mxCell>
        <mxCell id="fe30lfffuFMuotsFYThZ-60" value="" style="endArrow=classic;html=1;rounded=0;exitX=1;exitY=0.5;exitDx=0;exitDy=0;entryX=0;entryY=0.5;entryDx=0;entryDy=0;fillColor=#ffe6cc;strokeColor=#d79b00;" parent="fe30lfffuFMuotsFYThZ-105" source="fe30lfffuFMuotsFYThZ-58" target="fe30lfffuFMuotsFYThZ-57" edge="1">
          <mxGeometry width="50" height="50" relative="1" as="geometry">
            <mxPoint x="15" y="86.25" as="sourcePoint" />
            <mxPoint x="52.5" y="48.75" as="targetPoint" />
          </mxGeometry>
        </mxCell>
        <mxCell id="fe30lfffuFMuotsFYThZ-61" value="" style="endArrow=classic;html=1;rounded=0;exitX=1;exitY=0.5;exitDx=0;exitDy=0;entryX=0;entryY=0.5;entryDx=0;entryDy=0;fillColor=#ffe6cc;strokeColor=#d79b00;" parent="fe30lfffuFMuotsFYThZ-105" source="fe30lfffuFMuotsFYThZ-58" target="fe30lfffuFMuotsFYThZ-56" edge="1">
          <mxGeometry width="50" height="50" relative="1" as="geometry">
            <mxPoint x="15" y="86.25" as="sourcePoint" />
            <mxPoint x="52.5" y="48.75" as="targetPoint" />
          </mxGeometry>
        </mxCell>
        <mxCell id="fe30lfffuFMuotsFYThZ-62" value="" style="endArrow=classic;html=1;rounded=0;exitX=1;exitY=0.5;exitDx=0;exitDy=0;entryX=0;entryY=0.5;entryDx=0;entryDy=0;fillColor=#ffe6cc;strokeColor=#d79b00;" parent="fe30lfffuFMuotsFYThZ-105" source="fe30lfffuFMuotsFYThZ-58" target="fe30lfffuFMuotsFYThZ-55" edge="1">
          <mxGeometry width="50" height="50" relative="1" as="geometry">
            <mxPoint x="15" y="86.25" as="sourcePoint" />
            <mxPoint x="52.5" y="48.75" as="targetPoint" />
          </mxGeometry>
        </mxCell>
        <mxCell id="fe30lfffuFMuotsFYThZ-113" value="PgSQL" style="shape=cylinder3;whiteSpace=wrap;html=1;boundedLbl=1;backgroundOutline=1;size=5.586206896551687;fillColor=#dae8fc;strokeColor=#6c8ebf;" parent="1" vertex="1">
          <mxGeometry x="146" y="145" width="48" height="40" as="geometry" />
        </mxCell>
        <mxCell id="fe30lfffuFMuotsFYThZ-119" style="edgeStyle=orthogonalEdgeStyle;rounded=0;orthogonalLoop=1;jettySize=auto;html=1;exitX=1;exitY=0;exitDx=0;exitDy=0;entryX=0.5;entryY=1;entryDx=0;entryDy=0;fontColor=#CCCCCC;strokeColor=#d79b00;startArrow=classic;startFill=1;fillColor=#ffe6cc;" parent="1" source="fe30lfffuFMuotsFYThZ-54" target="fe30lfffuFMuotsFYThZ-96" edge="1">
          <mxGeometry relative="1" as="geometry">
            <Array as="points">
              <mxPoint x="151" y="310" />
              <mxPoint x="589" y="310" />
            </Array>
          </mxGeometry>
        </mxCell>
        <mxCell id="fe30lfffuFMuotsFYThZ-124" value="PgSQL" style="shape=cylinder3;whiteSpace=wrap;html=1;boundedLbl=1;backgroundOutline=1;size=5.586206896551687;fillColor=#dae8fc;strokeColor=#6c8ebf;" parent="1" vertex="1">
          <mxGeometry x="149" y="510" width="48" height="40" as="geometry" />
        </mxCell>
        <mxCell id="fe30lfffuFMuotsFYThZ-127" style="edgeStyle=orthogonalEdgeStyle;rounded=0;orthogonalLoop=1;jettySize=auto;html=1;exitX=0.25;exitY=1;exitDx=0;exitDy=0;entryX=0.5;entryY=0;entryDx=0;entryDy=0;entryPerimeter=0;startArrow=classic;startFill=1;fillColor=#dae8fc;strokeColor=#6c8ebf;" parent="1" source="fe30lfffuFMuotsFYThZ-76" target="fe30lfffuFMuotsFYThZ-124" edge="1">
          <mxGeometry relative="1" as="geometry" />
        </mxCell>
        <mxCell id="fe30lfffuFMuotsFYThZ-131" value="PgSQL" style="shape=cylinder3;whiteSpace=wrap;html=1;boundedLbl=1;backgroundOutline=1;size=5.586206896551687;fillColor=#dae8fc;strokeColor=#6c8ebf;" parent="1" vertex="1">
          <mxGeometry x="261" y="510" width="48" height="40" as="geometry" />
        </mxCell>
        <mxCell id="fe30lfffuFMuotsFYThZ-134" style="edgeStyle=orthogonalEdgeStyle;rounded=0;orthogonalLoop=1;jettySize=auto;html=1;exitX=0.25;exitY=1;exitDx=0;exitDy=0;entryX=0.5;entryY=0;entryDx=0;entryDy=0;entryPerimeter=0;startArrow=classic;startFill=1;fillColor=#dae8fc;strokeColor=#6c8ebf;" parent="1" edge="1">
          <mxGeometry relative="1" as="geometry">
            <mxPoint x="284.86" y="475" as="sourcePoint" />
            <mxPoint x="284.86" y="510" as="targetPoint" />
          </mxGeometry>
        </mxCell>
        <mxCell id="fe30lfffuFMuotsFYThZ-137" value="PgSQL" style="shape=cylinder3;whiteSpace=wrap;html=1;boundedLbl=1;backgroundOutline=1;size=5.586206896551687;fillColor=#dae8fc;strokeColor=#6c8ebf;" parent="1" vertex="1">
          <mxGeometry x="401" y="145" width="48" height="40" as="geometry" />
        </mxCell>
        <mxCell id="fe30lfffuFMuotsFYThZ-138" style="edgeStyle=orthogonalEdgeStyle;rounded=0;orthogonalLoop=1;jettySize=auto;html=1;exitX=0.25;exitY=1;exitDx=0;exitDy=0;entryX=0.5;entryY=0;entryDx=0;entryDy=0;entryPerimeter=0;startArrow=classic;startFill=1;fillColor=#dae8fc;strokeColor=#6c8ebf;" parent="1" edge="1">
          <mxGeometry relative="1" as="geometry">
            <mxPoint x="424.86" y="185" as="sourcePoint" />
            <mxPoint x="424.86" y="220" as="targetPoint" />
          </mxGeometry>
        </mxCell>
        <mxCell id="fe30lfffuFMuotsFYThZ-152" value="" style="endArrow=classic;startArrow=classic;html=1;rounded=0;entryX=0;entryY=0;entryDx=25;entryDy=0;entryPerimeter=0;fillColor=#f8cecc;strokeColor=#b85450;" parent="1" target="fe30lfffuFMuotsFYThZ-153" edge="1">
          <mxGeometry width="50" height="50" relative="1" as="geometry">
            <mxPoint x="480" y="220" as="sourcePoint" />
            <mxPoint x="465.22" y="92.01899999999995" as="targetPoint" />
            <Array as="points">
              <mxPoint x="480" y="101" />
            </Array>
          </mxGeometry>
        </mxCell>
        <mxCell id="fe30lfffuFMuotsFYThZ-153" value="Docker" style="verticalAlign=top;align=left;spacingTop=8;spacingLeft=2;spacingRight=12;shape=cube;size=10;direction=south;fontStyle=0;html=1;whiteSpace=wrap;strokeColor=#666666;fillColor=#f5f5f5;fontColor=#333333;" parent="1" vertex="1">
          <mxGeometry x="395" y="76" width="60" height="60" as="geometry" />
        </mxCell>
        <mxCell id="fe30lfffuFMuotsFYThZ-158" value="S3" style="rounded=0;whiteSpace=wrap;html=1;fillColor=#f8cecc;strokeColor=#b85450;" parent="1" vertex="1">
          <mxGeometry x="401" y="110" width="39" height="20" as="geometry" />
        </mxCell>
        <mxCell id="fe30lfffuFMuotsFYThZ-159" style="edgeStyle=orthogonalEdgeStyle;rounded=0;orthogonalLoop=1;jettySize=auto;html=1;exitX=0.25;exitY=1;exitDx=0;exitDy=0;entryX=0.5;entryY=0;entryDx=0;entryDy=0;entryPerimeter=0;startArrow=classic;startFill=1;fillColor=#dae8fc;strokeColor=#6c8ebf;" parent="1" edge="1">
          <mxGeometry relative="1" as="geometry">
            <mxPoint x="170" y="185" as="sourcePoint" />
            <mxPoint x="170" y="220" as="targetPoint" />
          </mxGeometry>
        </mxCell>
        <mxCell id="fe30lfffuFMuotsFYThZ-160" value="PgSQL" style="shape=cylinder3;whiteSpace=wrap;html=1;boundedLbl=1;backgroundOutline=1;size=5.586206896551687;fillColor=#dae8fc;strokeColor=#6c8ebf;" parent="1" vertex="1">
          <mxGeometry x="261" y="145" width="48" height="40" as="geometry" />
        </mxCell>
        <mxCell id="fe30lfffuFMuotsFYThZ-161" style="edgeStyle=orthogonalEdgeStyle;rounded=0;orthogonalLoop=1;jettySize=auto;html=1;exitX=0.25;exitY=1;exitDx=0;exitDy=0;entryX=0.5;entryY=0;entryDx=0;entryDy=0;entryPerimeter=0;startArrow=classic;startFill=1;fillColor=#dae8fc;strokeColor=#6c8ebf;" parent="1" edge="1">
          <mxGeometry relative="1" as="geometry">
            <mxPoint x="285" y="185" as="sourcePoint" />
            <mxPoint x="285" y="220" as="targetPoint" />
          </mxGeometry>
        </mxCell>
        <mxCell id="fe30lfffuFMuotsFYThZ-162" value="" style="endArrow=classic;startArrow=classic;html=1;rounded=0;entryX=0.407;entryY=0.997;entryDx=0;entryDy=0;entryPerimeter=0;fillColor=#f8cecc;strokeColor=#b85450;" parent="1" target="fe30lfffuFMuotsFYThZ-153" edge="1">
          <mxGeometry width="50" height="50" relative="1" as="geometry">
            <mxPoint x="360" y="220" as="sourcePoint" />
            <mxPoint x="390" y="180" as="targetPoint" />
            <Array as="points">
              <mxPoint x="360" y="100" />
            </Array>
          </mxGeometry>
        </mxCell>
        <mxCell id="fe30lfffuFMuotsFYThZ-163" value="Cassandra" style="shape=cylinder3;whiteSpace=wrap;html=1;boundedLbl=1;backgroundOutline=1;size=5.586206896551687;fillColor=#e1d5e7;strokeColor=#9673a6;" parent="1" vertex="1">
          <mxGeometry x="510" y="145" width="80" height="40" as="geometry" />
        </mxCell>
        <mxCell id="fe30lfffuFMuotsFYThZ-164" style="edgeStyle=orthogonalEdgeStyle;rounded=0;orthogonalLoop=1;jettySize=auto;html=1;exitX=0.25;exitY=1;exitDx=0;exitDy=0;entryX=0.5;entryY=0;entryDx=0;entryDy=0;entryPerimeter=0;startArrow=classic;startFill=1;fillColor=#e1d5e7;strokeColor=#9673a6;" parent="1" edge="1">
          <mxGeometry relative="1" as="geometry">
            <mxPoint x="549.8" y="185" as="sourcePoint" />
            <mxPoint x="549.8" y="220" as="targetPoint" />
          </mxGeometry>
        </mxCell>
        <mxCell id="fe30lfffuFMuotsFYThZ-168" value="PgSQL" style="shape=cylinder3;whiteSpace=wrap;html=1;boundedLbl=1;backgroundOutline=1;size=5.586206896551687;fillColor=#dae8fc;strokeColor=#6c8ebf;" parent="1" vertex="1">
          <mxGeometry x="372" y="510" width="48" height="40" as="geometry" />
        </mxCell>
        <mxCell id="fe30lfffuFMuotsFYThZ-169" style="edgeStyle=orthogonalEdgeStyle;rounded=0;orthogonalLoop=1;jettySize=auto;html=1;exitX=0.25;exitY=1;exitDx=0;exitDy=0;entryX=0.5;entryY=0;entryDx=0;entryDy=0;entryPerimeter=0;startArrow=classic;startFill=1;fillColor=#dae8fc;strokeColor=#6c8ebf;" parent="1" edge="1">
          <mxGeometry relative="1" as="geometry">
            <mxPoint x="395.86" y="475" as="sourcePoint" />
            <mxPoint x="395.86" y="510" as="targetPoint" />
          </mxGeometry>
        </mxCell>
        <mxCell id="fe30lfffuFMuotsFYThZ-170" value="" style="endArrow=classic;html=1;rounded=0;exitX=1;exitY=0.5;exitDx=0;exitDy=0;entryX=0.75;entryY=1;entryDx=0;entryDy=0;dashed=1;fillColor=#bac8d3;strokeColor=#23445d;" parent="1" target="fe30lfffuFMuotsFYThZ-80" edge="1">
          <mxGeometry width="50" height="50" relative="1" as="geometry">
            <mxPoint x="372" y="595" as="sourcePoint" />
            <mxPoint x="465" y="480" as="targetPoint" />
            <Array as="points">
              <mxPoint x="466" y="595" />
            </Array>
          </mxGeometry>
        </mxCell>
        <mxCell id="fe30lfffuFMuotsFYThZ-172" value="Kafka" style="shape=cylinder3;boundedLbl=1;backgroundOutline=1;size=3.8571428571430033;rotation=90;direction=east;flipH=1;html=1;whiteSpace=wrap;labelBorderColor=none;labelBackgroundColor=none;horizontal=0;fillColor=#b0e3e6;strokeColor=#0e8088;" parent="1" vertex="1">
          <mxGeometry x="374.5" y="267.5" width="19" height="165" as="geometry" />
        </mxCell>
        <mxCell id="fe30lfffuFMuotsFYThZ-173" value="" style="group" parent="1" vertex="1" connectable="0">
          <mxGeometry x="514" y="420" width="111" height="65" as="geometry" />
        </mxCell>
        <mxCell id="fe30lfffuFMuotsFYThZ-175" value="&amp;nbsp;Docker" style="rounded=0;whiteSpace=wrap;html=1;fillColor=#f5f5f5;strokeColor=#666666;fontColor=#333333;verticalAlign=top;align=left;" parent="fe30lfffuFMuotsFYThZ-173" vertex="1">
          <mxGeometry width="105" height="59" as="geometry" />
        </mxCell>
        <mxCell id="fe30lfffuFMuotsFYThZ-176" value="&lt;i&gt;discovery&lt;/i&gt;" style="rounded=0;whiteSpace=wrap;html=1;fillColor=#bac8d3;strokeColor=#23445d;" parent="fe30lfffuFMuotsFYThZ-173" vertex="1">
          <mxGeometry x="6" y="29" width="93" height="20" as="geometry" />
        </mxCell>
        <mxCell id="fe30lfffuFMuotsFYThZ-177" value="" style="group" parent="1" vertex="1" connectable="0">
          <mxGeometry x="514" y="491" width="111" height="65" as="geometry" />
        </mxCell>
        <mxCell id="fe30lfffuFMuotsFYThZ-179" value="&amp;nbsp;Docker" style="rounded=0;whiteSpace=wrap;html=1;fillColor=#f5f5f5;strokeColor=#666666;fontColor=#333333;verticalAlign=top;align=left;" parent="fe30lfffuFMuotsFYThZ-177" vertex="1">
          <mxGeometry width="105" height="59" as="geometry" />
        </mxCell>
        <mxCell id="fe30lfffuFMuotsFYThZ-180" value="&lt;i&gt;config&lt;/i&gt;" style="rounded=0;whiteSpace=wrap;html=1;fillColor=#bac8d3;strokeColor=#23445d;" parent="fe30lfffuFMuotsFYThZ-177" vertex="1">
          <mxGeometry x="6" y="29" width="93" height="20" as="geometry" />
        </mxCell>
        <mxCell id="fe30lfffuFMuotsFYThZ-182" style="edgeStyle=orthogonalEdgeStyle;rounded=0;orthogonalLoop=1;jettySize=auto;html=1;exitX=1;exitY=1;exitDx=0;exitDy=0;entryX=0.75;entryY=0;entryDx=0;entryDy=0;strokeColor=#d79b00;fillColor=#ffe6cc;startArrow=classic;startFill=1;" parent="1" source="fe30lfffuFMuotsFYThZ-54" target="fe30lfffuFMuotsFYThZ-81" edge="1">
          <mxGeometry relative="1" as="geometry">
            <Array as="points">
              <mxPoint x="151" y="390" />
              <mxPoint x="460" y="390" />
            </Array>
          </mxGeometry>
        </mxCell>
        <mxCell id="fe30lfffuFMuotsFYThZ-183" style="edgeStyle=orthogonalEdgeStyle;rounded=0;orthogonalLoop=1;jettySize=auto;html=1;exitX=1;exitY=0.25;exitDx=0;exitDy=0;entryX=0.62;entryY=0.996;entryDx=0;entryDy=0;entryPerimeter=0;startArrow=classic;startFill=1;endArrow=none;endFill=0;fillColor=#bac8d3;strokeColor=#23445d;" parent="1" target="fe30lfffuFMuotsFYThZ-80" edge="1">
          <mxGeometry relative="1" as="geometry">
            <mxPoint x="372" y="582.5" as="sourcePoint" />
          </mxGeometry>
        </mxCell>
        <mxCell id="fe30lfffuFMuotsFYThZ-187" value="" style="endArrow=classic;html=1;rounded=0;entryX=0.5;entryY=1;entryDx=0;entryDy=0;strokeColor=#d79b00;fillColor=#ffe6cc;" parent="1" edge="1">
          <mxGeometry width="50" height="50" relative="1" as="geometry">
            <mxPoint x="326" y="310" as="sourcePoint" />
            <mxPoint x="326" y="285" as="targetPoint" />
          </mxGeometry>
        </mxCell>
        <mxCell id="fe30lfffuFMuotsFYThZ-190" value="" style="endArrow=classic;html=1;rounded=0;entryX=0.5;entryY=1;entryDx=0;entryDy=0;strokeColor=#d79b00;fillColor=#ffe6cc;" parent="1" edge="1">
          <mxGeometry width="50" height="50" relative="1" as="geometry">
            <mxPoint x="197.4" y="310" as="sourcePoint" />
            <mxPoint x="197.4" y="285" as="targetPoint" />
          </mxGeometry>
        </mxCell>
        <mxCell id="fe30lfffuFMuotsFYThZ-191" value="" style="endArrow=classic;html=1;rounded=0;entryX=0.5;entryY=1;entryDx=0;entryDy=0;strokeColor=#d79b00;fillColor=#ffe6cc;" parent="1" edge="1">
          <mxGeometry width="50" height="50" relative="1" as="geometry">
            <mxPoint x="455.4" y="310" as="sourcePoint" />
            <mxPoint x="455.4" y="285" as="targetPoint" />
          </mxGeometry>
        </mxCell>
        <mxCell id="fe30lfffuFMuotsFYThZ-193" value="" style="endArrow=classic;html=1;rounded=0;entryX=0.5;entryY=1;entryDx=0;entryDy=0;strokeColor=#d79b00;fillColor=#ffe6cc;" parent="1" edge="1">
          <mxGeometry width="50" height="50" relative="1" as="geometry">
            <mxPoint x="194" y="390" as="sourcePoint" />
            <mxPoint x="194" y="410" as="targetPoint" />
          </mxGeometry>
        </mxCell>
        <mxCell id="fe30lfffuFMuotsFYThZ-194" value="" style="endArrow=classic;html=1;rounded=0;entryX=0.5;entryY=1;entryDx=0;entryDy=0;strokeColor=#d79b00;fillColor=#ffe6cc;" parent="1" edge="1">
          <mxGeometry width="50" height="50" relative="1" as="geometry">
            <mxPoint x="325.33" y="390" as="sourcePoint" />
            <mxPoint x="325.33" y="410" as="targetPoint" />
          </mxGeometry>
        </mxCell>
        <mxCell id="fe30lfffuFMuotsFYThZ-196" value="Vault" style="rounded=0;whiteSpace=wrap;html=1;fillColor=#76608a;fontColor=#ffffff;strokeColor=#432D57;" parent="1" vertex="1">
          <mxGeometry x="510" y="590" width="50" height="30" as="geometry" />
        </mxCell>
        <mxCell id="fe30lfffuFMuotsFYThZ-197" value="Github" style="rounded=0;whiteSpace=wrap;html=1;fillColor=#647687;strokeColor=#314354;fontColor=#ffffff;" parent="1" vertex="1">
          <mxGeometry x="580" y="590" width="50" height="30" as="geometry" />
        </mxCell>
        <mxCell id="fe30lfffuFMuotsFYThZ-198" value="" style="endArrow=classic;html=1;rounded=0;entryX=0.25;entryY=1;entryDx=0;entryDy=0;exitX=0.647;exitY=-0.011;exitDx=0;exitDy=0;exitPerimeter=0;dashed=1;fillColor=#76608a;strokeColor=#432D57;" parent="1" source="fe30lfffuFMuotsFYThZ-196" edge="1">
          <mxGeometry width="50" height="50" relative="1" as="geometry">
            <mxPoint x="460" y="590" as="sourcePoint" />
            <mxPoint x="542.2499999999998" y="550" as="targetPoint" />
          </mxGeometry>
        </mxCell>
        <mxCell id="fe30lfffuFMuotsFYThZ-199" value="" style="endArrow=classic;html=1;rounded=0;entryX=0.25;entryY=1;entryDx=0;entryDy=0;exitX=0.647;exitY=-0.011;exitDx=0;exitDy=0;exitPerimeter=0;dashed=1;fillColor=#647687;strokeColor=#314354;" parent="1" edge="1">
          <mxGeometry width="50" height="50" relative="1" as="geometry">
            <mxPoint x="604.83" y="590" as="sourcePoint" />
            <mxPoint x="604.83" y="550" as="targetPoint" />
          </mxGeometry>
        </mxCell>
        <mxCell id="fe30lfffuFMuotsFYThZ-200" value="" style="endArrow=classic;html=1;rounded=0;entryX=0.25;entryY=1;entryDx=0;entryDy=0;exitX=0.647;exitY=-0.011;exitDx=0;exitDy=0;exitPerimeter=0;fillColor=#647687;strokeColor=#314354;" parent="1" edge="1">
          <mxGeometry width="50" height="50" relative="1" as="geometry">
            <mxPoint x="595.33" y="550" as="sourcePoint" />
            <mxPoint x="595.33" y="590" as="targetPoint" />
          </mxGeometry>
        </mxCell>
        <mxCell id="fe30lfffuFMuotsFYThZ-204" value="" style="endArrow=classic;html=1;rounded=0;entryX=0.25;entryY=1;entryDx=0;entryDy=0;exitX=0.647;exitY=-0.011;exitDx=0;exitDy=0;exitPerimeter=0;fillColor=#76608a;strokeColor=#432D57;" parent="1" edge="1">
          <mxGeometry width="50" height="50" relative="1" as="geometry">
            <mxPoint x="530" y="550" as="sourcePoint" />
            <mxPoint x="530" y="590" as="targetPoint" />
          </mxGeometry>
        </mxCell>
        <mxCell id="fe30lfffuFMuotsFYThZ-215" style="edgeStyle=orthogonalEdgeStyle;rounded=0;orthogonalLoop=1;jettySize=auto;html=1;exitX=0.75;exitY=1;exitDx=0;exitDy=0;entryX=0.921;entryY=0.891;entryDx=0;entryDy=0;entryPerimeter=0;fillColor=#b0e3e6;strokeColor=#0e8088;startArrow=classic;startFill=1;" parent="1" source="fe30lfffuFMuotsFYThZ-92" target="fe30lfffuFMuotsFYThZ-172" edge="1">
          <mxGeometry relative="1" as="geometry">
            <Array as="points">
              <mxPoint x="227" y="320" />
              <mxPoint x="320" y="320" />
              <mxPoint x="320" y="341" />
            </Array>
          </mxGeometry>
        </mxCell>
        <mxCell id="fe30lfffuFMuotsFYThZ-216" style="edgeStyle=orthogonalEdgeStyle;rounded=0;orthogonalLoop=1;jettySize=auto;html=1;entryX=0.5;entryY=1;entryDx=0;entryDy=0;entryPerimeter=0;fillColor=#b0e3e6;strokeColor=#0e8088;startArrow=classic;startFill=1;" parent="1" target="fe30lfffuFMuotsFYThZ-172" edge="1">
          <mxGeometry relative="1" as="geometry">
            <mxPoint x="230" y="410" as="sourcePoint" />
            <Array as="points">
              <mxPoint x="230" y="410" />
              <mxPoint x="230" y="350" />
            </Array>
          </mxGeometry>
        </mxCell>
        <mxCell id="fe30lfffuFMuotsFYThZ-217" style="edgeStyle=orthogonalEdgeStyle;rounded=0;orthogonalLoop=1;jettySize=auto;html=1;exitX=0.796;exitY=-0.01;exitDx=0;exitDy=0;entryX=0;entryY=0;entryDx=0;entryDy=121.8214285714285;entryPerimeter=0;startArrow=classic;startFill=1;fillColor=#b0e3e6;strokeColor=#0e8088;exitPerimeter=0;" parent="1" source="fe30lfffuFMuotsFYThZ-70" target="fe30lfffuFMuotsFYThZ-172" edge="1">
          <mxGeometry relative="1" as="geometry">
            <Array as="points" />
          </mxGeometry>
        </mxCell>
        <mxCell id="fe30lfffuFMuotsFYThZ-219" style="edgeStyle=orthogonalEdgeStyle;rounded=0;orthogonalLoop=1;jettySize=auto;html=1;fillColor=#b0e3e6;strokeColor=#0e8088;startArrow=classic;startFill=1;" parent="1" edge="1">
          <mxGeometry relative="1" as="geometry">
            <mxPoint x="420" y="410" as="sourcePoint" />
            <Array as="points">
              <mxPoint x="420" y="359" />
            </Array>
            <mxPoint x="420" y="359" as="targetPoint" />
          </mxGeometry>
        </mxCell>
        <mxCell id="fe30lfffuFMuotsFYThZ-220" style="edgeStyle=orthogonalEdgeStyle;rounded=0;orthogonalLoop=1;jettySize=auto;html=1;exitX=0.25;exitY=1;exitDx=0;exitDy=0;entryX=0.5;entryY=0;entryDx=0;entryDy=0;entryPerimeter=0;startArrow=classic;startFill=1;fillColor=#b0e3e6;strokeColor=#0e8088;" parent="1" source="fe30lfffuFMuotsFYThZ-96" target="fe30lfffuFMuotsFYThZ-172" edge="1">
          <mxGeometry relative="1" as="geometry" />
        </mxCell>
        <mxCell id="szdgeVaJElXgryoSBNW6-2" style="edgeStyle=orthogonalEdgeStyle;rounded=0;orthogonalLoop=1;jettySize=auto;html=1;exitX=0.75;exitY=1;exitDx=0;exitDy=0;entryX=1.011;entryY=0.677;entryDx=0;entryDy=0;entryPerimeter=0;startArrow=classic;startFill=1;fillColor=#b0e3e6;strokeColor=#0e8088;" parent="1" source="fe30lfffuFMuotsFYThZ-84" target="fe30lfffuFMuotsFYThZ-172" edge="1">
          <mxGeometry relative="1" as="geometry" />
        </mxCell>
        <mxCell id="szdgeVaJElXgryoSBNW6-3" style="edgeStyle=orthogonalEdgeStyle;rounded=0;orthogonalLoop=1;jettySize=auto;html=1;exitX=0.25;exitY=1;exitDx=0;exitDy=0;entryX=0.951;entryY=0.209;entryDx=0;entryDy=0;entryPerimeter=0;startArrow=classic;startFill=1;fillColor=#b0e3e6;strokeColor=#0e8088;" parent="1" source="fe30lfffuFMuotsFYThZ-88" target="fe30lfffuFMuotsFYThZ-172" edge="1">
          <mxGeometry relative="1" as="geometry" />
        </mxCell>
        <mxCell id="szdgeVaJElXgryoSBNW6-4" value="Google/Facebook" style="rounded=0;whiteSpace=wrap;html=1;fillColor=#bac8d3;strokeColor=#23445d;" parent="1" vertex="1">
          <mxGeometry x="252" y="574" width="120" height="30" as="geometry" />
        </mxCell>
        <mxCell id="szdgeVaJElXgryoSBNW6-5" value="Redis" style="shape=cylinder3;whiteSpace=wrap;html=1;boundedLbl=1;backgroundOutline=1;size=5.586206896551687;fillColor=#f8cecc;strokeColor=#b85450;" parent="1" vertex="1">
          <mxGeometry x="524" y="80" width="106" height="34" as="geometry" />
        </mxCell>
      </root>
    </mxGraphModel>
  </diagram>
</mxfile>
